<svg xmlns="http://www.w3.org/2000/svg" viewBox="0 0 500 500"><g id="freepik--Floor--inject-286"><path d="M69.6938,437.16791c115.51508-.61218,245.09793-.61678,360.61242-.00008-115.51507,.61685-245.09793,.61224-360.61242,.00008h0Z" style="fill:#263238;"></path></g><g id="freepik--Shadows--inject-286"><g style="opacity:.1;"><ellipse cx="104.215" cy="463.45633" rx="62.887" ry="7.34687"></ellipse><ellipse cx="256.16689" cy="472.3025" rx="151.9519" ry="11.9159"></ellipse></g></g><g id="freepik--Shuttlecock--inject-286"><g><g><g><path d="M426.80752,83.18202c-3.11471-3.43116-12.96736-8.13689-12.96736-8.13689,0,0,3.73344,10.26057,6.84815,13.69172,3.11473,3.43102,7.93813,2.59668,7.93813,2.59668,0,0,1.29573-4.72044-1.81892-8.15152Z" style="fill:#56534B;"></path><path d="M426.80752,83.18202c-3.11471-3.43116-12.96736-8.13689-12.96736-8.13689,0,0,3.73344,10.26057,6.84815,13.69172,3.11473,3.43102,7.93813,2.59668,7.93813,2.59668,0,0,1.29573-4.72044-1.81892-8.15152Z" style="fill:#fff; opacity:.5;"></path></g><rect x="416.81632" y="61.40467" width=".50363" height="34.39271" transform="translate(55.46049 300.78082) rotate(-42.24032)" style="fill:#c7c7c7;"></rect><path d="M421.729,79.34169c1.59838,2.29666,3.39777,4.59875,4.90041,5.77587,.60392,.47321,1.23657,.82427,1.86862,1.07603-.30814-1.0172-.83194-2.06293-1.69014-3.01022-1.09844-1.20913-3.03382-2.57842-5.07889-3.84168Z" style="fill:#56534B; opacity:.5;"></path></g><g><g><path d="M432.35233,78.06966c-3.75714-2.71249-14.37021-5.27786-14.37021-5.27786,0,0,5.7756,9.26606,9.53274,11.97855,3.75723,2.71243,8.30366,.89816,8.30366,.89816,0,0,.29103-4.88642-3.46619-7.59886Z" style="fill:#56534B;"></path><path d="M432.35233,78.06966c-3.75714-2.71249-14.37021-5.27786-14.37021-5.27786,0,0,5.7756,9.26606,9.53274,11.97855,3.75723,2.71243,8.30366,.89816,8.30366,.89816,0,0,.29103-4.88642-3.46619-7.59886Z" style="fill:#fff; opacity:.5;"></path></g><rect x="421.624" y="58.40644" width=".50375" height="34.39274" transform="translate(113.56609 373.32772) rotate(-54.1593)" style="fill:#c7c7c7;"></rect><path d="M425.53468,74.99213c2.15358,1.86335,4.52435,3.69526,6.30554,4.47462,.83061,.36347,1.65328,.55028,2.4405,.61716-.48034-.72425-1.10697-1.42183-1.92789-2.01475-1.52945-1.10359-4.19653-2.18269-6.81815-3.07703Z" style="fill:#56534B; opacity:.5;"></path></g><g><g><path d="M435.03718,64.37504c-4.63384,.04048-14.77612-4.00334-14.77612-4.00334,0,0,10.07022-4.22022,14.70393-4.26071,4.63385-.04047,7.29402,4.06867,7.29402,4.06867,0,0-2.58805,4.15498-7.22182,4.19539Z" style="fill:#56534B;"></path><path d="M435.03718,64.37504c-4.63384,.04048-14.77612-4.00334-14.77612-4.00334,0,0,10.07022-4.22022,14.70393-4.26071,4.63385-.04047,7.29402,4.06867,7.29402,4.06867,0,0-2.58805,4.15498-7.22182,4.19539Z" style="fill:#fff; opacity:.5;"></path></g><rect x="407.86701" y="60.07797" width="34.3927" height=".50369" transform="translate(-.51065 3.71435) rotate(-.50037)" style="fill:#c7c7c7;"></rect><path d="M428.7703,63.25074c2.77151-.38442,5.68348-.6249,7.56781-.31988,.75741,.12252,1.44448,.349,2.05835,.64235-.95628,.46398-2.07984,.78876-3.35812,.80123-1.63334,.01373-3.95247-.47883-6.26805-1.12369Z" style="fill:#56534B; opacity:.5;"></path></g><g><g><path d="M435.04465,71.91703c-4.54193-.9191-13.62808-6.97386-13.62808-6.97386,0,0,10.72536-2.04541,15.26729-1.12631s6.2944,5.48971,6.2944,5.48971c0,0-3.39168,3.52956-7.93361,2.61046Z" style="fill:#56534B;"></path><path d="M435.04465,71.91703c-4.54193-.9191-13.62808-6.97386-13.62808-6.97386,0,0,10.72536-2.04541,15.26729-1.12631s6.2944,5.48971,6.2944,5.48971c0,0-3.39168,3.52956-7.93361,2.61046Z" style="fill:#fff; opacity:.5;"></path></g><rect x="425.87171" y="48.69939" width=".50379" height="34.39277" transform="translate(277.01748 470.48315) rotate(-78.55979)" style="fill:#c7c7c7;"></rect><path d="M428.15778,68.99757c2.83006,.31746,5.78433,.81581,7.56559,1.59525,.8306,.36346,1.52612,.84097,2.10933,1.37391-.85791,.13861-1.7955,.15171-2.78814-.049-1.84833-.3745-4.45092-1.60125-6.88677-2.92016Z" style="fill:#56534B; opacity:.5;"></path></g><g><g><path d="M432.12537,78.81545c-4.24535-1.85768-11.84771-9.69494-11.84771-9.69494,0,0,10.91539,.26603,15.16075,2.1237s4.99293,6.69531,4.99293,6.69531c0,0-4.0607,2.73366-8.30597,.87593Z" style="fill:#56534B;"></path><path d="M432.12537,78.81545c-4.24535-1.85768-11.84771-9.69494-11.84771-9.69494,0,0,10.91539,.26603,15.16075,2.1237s4.99293,6.69531,4.99293,6.69531c0,0-4.0607,2.73366-8.30597,.87593Z" style="fill:#fff; opacity:.5;"></path></g><rect x="424.42545" y="53.84947" width=".5037" height="34.39267" transform="translate(189.32197 431.60951) rotate(-66.36307)" style="fill:#c7c7c7;"></rect></g><g><path d="M401.25075,60.79466h0c1.4092-3.22045,5.16235-4.68872,8.3828-3.27952l4.19424,1.83534-5.10319,11.66227-4.19439-1.83537c-3.22037-1.40926-4.68872-5.16235-3.27946-8.38272Z" style="fill:#56534B;"></path><rect x="405.44829" y="64.10455" width="12.72989" height="2.62418" transform="translate(636.8343 -285.63179) rotate(113.63372)" style="fill:#56534B;"></rect><g style="opacity:.5;"><rect x="405.44829" y="64.10455" width="12.72989" height="2.62418" transform="translate(636.8343 -285.63179) rotate(113.63372)" style="fill:#fff;"></rect></g></g></g></g><g id="freepik--Character--inject-286"><g><g><path d="M253.03189,123.6615c-14.6973,5.2056-50.5877,23.2641-57.9254,33.8373-4.5885,6.6117,16.1645,29.3029,34.6831,43.277,3.859,2.912,23.13481-14.0755,24.4091-19.1935,.8676-3.4848-26.5625-17.5054-25.0905-19.9182,2.7095-4.4413,22.5811-20.4103,32.1041-31.1055,5.317-5.9714,.9604-10.1346-8.1804-6.8971Z" style="fill:#f7a9a0;"></path><g><path d="M232.97129,161.1943l-23.0343-17.9946s22.5578-14.0566,40.90041-19.3121c14.32439-4.1039,16.85149,.3307,8.39749,9.6488-8.454,9.3182-26.2636,27.6579-26.2636,27.6579Z" style="fill:#56534B;"></path><path d="M218.98879,150.2687l13.9872,10.9292s17.8028-18.3478,26.2561-27.6603c6.8272-7.5294,6.4946-11.8716-1.4321-11.1047l-38.8112,27.8358Z" style="opacity:.1;"></path><g><polygon points="233.20259 164.3811 206.8801 144.6838 208.1592 144.2973 207.763 142.157 208.733 141.8639 210.4604 139.6604 236.07769 160.2557 234.73129 160.6626 234.72749 162.5842 233.45699 162.8011 233.20259 164.3811" style="fill:#56534B;"></polygon><polygon points="233.20259 164.3811 206.8801 144.6838 208.1592 144.2973 207.763 142.157 208.733 141.8639 210.4604 139.6604 236.07769 160.2557 234.73129 160.6626 234.72749 162.5842 233.45699 162.8011 233.20259 164.3811" style="opacity:.1;"></polygon></g></g></g><g><g><g><path d="M300.26719,294.4636c-4.2345-2.8199-51.9889-26.4518-68.6437-44.586-21.9147-23.8613-9.9479-53.0803-9.9479-53.0803l43.8066,.041s5.8408,15.7774,7.0276,17.6867c4.7819,7.6945,67.3224,37.4405,72.3034,49.7445,10.6527,26.3145-40.57479,32.8386-44.546,30.1941Z" style="fill:#f7a9a0;"></path><path d="M262.69819,276.2243l50.2414-37.9886s-37.0369-20.1737-39.3381-24.2109c-2.30109-4.0372-2.35709-17.1865-2.35709-17.1865l-49.56881-.041s-9.6645,21.6183-.2641,42.1469c9.4001,20.5285,41.2867,37.2801,41.2867,37.2801Z" style="fill:#263238;"></path><path d="M319.34769,294.5829c.0126-.1004,.0126-.1883,.0126-.2637,0-.113-.0126-.113-.0126-.1883l.0126-.0126c0,.0251,0,.0628,.0126,.1257,.0252,.0877,.0502,.1756,.0754,.251l.0502,.1257,.08791,.1507,.01259,.0376c-.0502-.0503-.1382-.1381-.2513-.2261Z" style="fill:#455a64;"></path></g><g><path d="M296.93669,293.1677c-2.3792,5.2671,12.379,13.132,13.0972,15.4506,.7181,2.3186,8.1182,9.8926,11.9132,11.5854,3.795,1.6927,16.5891-1.1165,17.8607-3.3469,1.2715-2.2305,13.3705-5.5078,15.5201-14.8181,2.14951-9.3103-6.6023-37.087-11.06949-40.0798-4.57561-3.0656-42.74381,21.0738-47.32171,31.2088Z" style="fill:#56534B;"></path><path d="M355.32559,302.0417c-2.15,9.31-14.25,12.58-15.52,14.82-1.27,2.23-14.06,5.03-17.86,3.34-3.79-1.69-11.19-9.26-11.91-11.58s-15.48-10.19-13.1-15.45c1.17-2.6,4.55-6.11,9-9.85-1.12,1.28-1.95,2.45-2.41,3.46-2.16,4.78,11.23,11.91,11.88,14.01s7.36,8.97,10.8,10.51c3.45,1.53,15.05-1.01,16.2-3.04,1.04-1.81,10-4.4,13.22-11.03,.09,1.88,0,3.52-.3,4.81Z" style="opacity:.1;"></path></g><g><g><rect x="328.38529" y="320.2037" width="10.0176" height="22.0917" style="fill:#dbdbdb;"></rect><polygon points="338.74199 345.4302 328.04619 345.4302 327.16229 343.1767 328.38529 342.2954 338.40289 342.2954 339.65359 343.1767 338.74199 345.4302" style="fill:#dbdbdb;"></polygon><polygon points="328.07389 317.0689 338.76969 317.0689 339.65359 319.3224 338.43059 320.2037 328.41299 320.2037 327.16229 319.3224 328.07389 317.0689" style="fill:#dbdbdb;"></polygon><polygon points="328.38529 320.2037 328.38529 321.1918 338.40289 320.6977 338.40289 320.2037 328.38529 320.2037" style="fill:#c7c7c7;"></polygon><polygon points="338.40289 342.2954 338.40289 341.3073 328.38529 341.8014 328.38529 342.2954 338.40289 342.2954" style="fill:#c7c7c7;"></polygon><rect x="327.87419" y="327.5058" width="11.0398" height="3.8674" style="fill:#263238;"></rect><rect x="327.87419" y="334.019" width="11.0398" height="3.8675" style="fill:#263238;"></rect><rect x="328.0414" y="315.8763" width="10.70059" height="1.1926" style="fill:#dbdbdb;"></rect><polygon points="338.74199 317.0689 338.74199 316.3235 328.0414 316.6962 328.0414 317.0689 338.74199 317.0689" style="fill:#c7c7c7;"></polygon><ellipse cx="329.38189" cy="329.5076" rx=".3833" ry=".5878" style="fill:#dbdbdb;"></ellipse><path d="M329.76519,335.9527c0,.3246-.1716,.5878-.3833,.5878s-.3833-.2632-.3833-.5878,.1716-.5877,.3833-.5877,.3833,.2631,.3833,.5877Z" style="fill:#dbdbdb;"></path></g><g><rect x="328.38529" y="372.9468" width="10.0176" height="9.534" style="fill:#dbdbdb;"></rect><polygon points="338.74199 385.6156 328.04619 385.6156 327.16229 383.3621 328.38529 382.4808 338.40289 382.4808 339.65359 383.3621 338.74199 385.6156" style="fill:#dbdbdb;"></polygon><polygon points="328.07389 369.812 338.76969 369.812 339.65359 372.0655 338.43059 372.9468 328.41299 372.9468 327.16229 372.0655 328.07389 369.812" style="fill:#dbdbdb;"></polygon><polygon points="328.38529 372.9468 328.38529 373.9349 338.40289 373.4409 338.40289 372.9468 328.38529 372.9468" style="fill:#c7c7c7;"></polygon><polygon points="338.40289 382.4808 338.40289 381.4927 328.38529 381.9868 328.38529 382.4808 338.40289 382.4808" style="fill:#c7c7c7;"></polygon><rect x="328.0414" y="368.6194" width="10.70059" height="1.1926" style="fill:#dbdbdb;"></rect><polygon points="338.74199 369.812 338.74199 369.0667 328.0414 369.4393 328.0414 369.812 338.74199 369.812" style="fill:#c7c7c7;"></polygon></g><g><g><g><ellipse cx="337.19177" cy="358.5943" rx="9.10537" ry="10.1955" style="fill:#ebebeb;"></ellipse><rect x="328.91289" y="348.3988" width="8.2789" height="20.391" style="fill:#ebebeb;"></rect></g><ellipse cx="329.59159" cy="358.5943" rx="9.1053" ry="10.1955" style="fill:#dbdbdb;"></ellipse><ellipse cx="329.59159" cy="358.5943" rx="6.8604" ry="7.6818" style="fill:#263238;"></ellipse></g><path d="M345.56829,353.2593h-9.9285c-1.1095-2.9121-3.37039-4.9117-5.9965-4.9117-2.612,0-4.887,1.9996-5.9965,4.9117h-2.0783c0-4.9654,5.3785-8.978,12.00691-8.978s11.99289,4.0126,11.99289,8.978Z" style="fill:#ebebeb;"></path></g><rect x="328.38529" y="385.6156" width="10.0176" height="1.1891" style="fill:#263238;"></rect><rect x="327.77719" y="386.8047" width="11.5824" height="2.0512" style="fill:#263238;"></rect><g><path d="M358.64129,476.0996h-28.4078c-2.34409,0-4.6554-.6065-6.68809-1.7867l-49.58661-28.5062c-4.1637-2.3933-6.7208-6.8192-6.7208-11.6221v-5.4751c0-4.7538,2.5079-9.1469,6.5896-11.5565l44.8657-26.4408c2.0654-1.213,4.4095-1.8523,6.8028-1.8523h18.9659l.1803,1.1639h-11.19389c-1.672,0-3.31121,.4425-4.73731,1.2949l-46.0132,26.9818c-3.3441,1.967-5.4094,5.5733-5.4094,9.4583v7.4748c0,3.9178,2.1145,7.557,5.5078,9.524l50.6194,29.1455c1.2294,.7049,2.62271,1.0655,4.0324,1.0655h21.0129l.1803,1.131Z" style="fill:#c7c7c7;"></path><path d="M358.46099,476.0996h-28.2275c-2.34409,0-4.6554-.6065-6.68809-1.7867l-49.58661-28.5062c-4.1637-2.3933-6.7208-6.8192-6.7208-11.6221v-5.4751c0-4.7538,2.5079-9.1469,6.5896-11.5565l44.8657-26.4408c2.0654-1.213,4.4095-1.8523,6.8028-1.8523h18.9659l.1803,1.1639h-19.50689c-1.67191,0-3.31111,.4425-4.73721,1.2949l-46.0132,26.9818c-3.3441,1.967-5.4095,5.5733-5.4095,9.4583v7.4748c0,3.9178,2.1146,7.557,5.5078,9.524l50.6194,29.1455c1.2295,.7049,2.6228,1.0655,4.0325,1.0655h29.1455l.1803,1.131Z" style="fill:#dbdbdb;"></path></g><rect x="327.77719" y="389.9335" width="11.5824" height="1.1306" style="fill:#263238;"></rect></g></g><g><g><g><path d="M93.2634,459.7834c-1.08551,0-20.36961,.9391-22.01981-.5395-16.7203-14.9809-40.2349-54.3277-40.7114-56.3087-.3213-1.2399,17.3625-15.7976,17.456-15.8987,1.8249-2.013,42.2177-31.8818,42.2177-31.8818l32.9483,38.8948-40.1119,26.0994-.58189,.5758s1.41119,11.1435,4.89539,21.3361c.483,1.4131,6.6917,7.5102,7.1074,8.6824,1.3781,3.8851,.3041,9.0402-1.19979,9.0402Z" style="fill:#f7a9a0;"></path><path d="M93.2699,459.7803c-1.0983,0-20.3756,.9432-22.0293-.5428-16.7191-14.9748-40.23419-54.3173-40.71219-56.3072-.323-1.2403,17.36489-15.7888,17.45539-15.8921,.452-.491,7.46561-5.9047,7.46561-5.9047l34.27749,34.6659-6.6898,4.354-.5816,.5685s1.4212,11.1503,4.89691,21.3444c.49079,1.4084,6.69269,7.5068,7.10619,8.6826,1.3824,3.8762,.3101,9.0314-1.1887,9.0314Z" style="fill:#ebebeb;"></path></g><g><path d="M94.0143,460.0774c-.6231,.4221-21.8378,.5881-23.2396-.6779-13.3886-12.0912-41.1338-54.4982-41.4261-56.916-.1592-1.263,9.3205-9.8397,19.7987-17.0642l33.5885,35.3648s2.0731,13.8742,4.7667,21.3099c.6125,1.6907,6.7098,7.2636,7.2638,8.4975,1.6993,3.7868,.143,8.8795-.752,9.4859Z" style="fill:#56534B;"></path><g><path d="M92.4106,448.9789c-3.0397-2.0121-6.9254-2.4748-9.68119-1.7671-2.64781,.68-5.47361,2.1823-6.93681,4.793-.042,.0749,.1011,.1647,.15881,.0961,3.68449-4.3647,10.93279-5.7574,16.36569-2.9675,.1092,.0562,.1975-.0857,.0935-.1545Z" style="fill:#263238;"></path><path d="M47.6806,398.9279c-3.5511-4.3315-10.289,1.1798-6.73219,5.5189,3.5515,4.3316,10.28939-1.1798,6.73219-5.5189Z" style="fill:#263238;"></path><g><g><path d="M97.7188,421.5573c.1389-3.2877-3.4281-4.5804-6.0892-4.5074-3.4145,.1063-7.2306,1.1122-10.4448,2.707-.46739,.2132-.9146,.4528-1.33839,.6955-.18171,.1191-.37371,.2252-.55271,.3211-.0029,.0233-.0131,.0102-.0131,.0102l-.1321,.1017c-.1555,.099-.2977,.1876-.4399,.2762-.0793,.0612-.0679,.1578-.0037,.2136-.15449,.1823-.2039,.4731-.0774,.6915,.0448,.1128,.1395,.2083,.287,.2632,1.1293,.3715,2.2891,.7828,3.4491,1.194,.1912,.0842,.3855,.1449,.59,.219,2.8324,.9956,5.7236,1.9037,8.7063,1.92,2.56551,.0219,5.921-1.0079,6.0589-4.1056Zm-12.1487,1.5363c-.9846-.2937-1.9665-.6107-2.938-.9144-.8343-.2622-1.6582-.5112-2.4954-.75-.1141-.0386-.2412-.0669-.3448-.0921-.1038-.0252-.2178-.0637-.3216-.089,.0995-.0348,.1992-.0693,.2989-.1041q.0234,.003,.0365-.0072c.65771-.2125,1.3021-.4147,1.9496-.6403,1.7502-.571,3.4975-1.1184,5.3173-1.4901,1.2341-.2568,2.5151-.5078,3.7749-.5949,1.9666-.1267,8.25691,1.2557,4.22691,4.9332-2.211,2.0216-7.08911,.4766-9.50431-.2511Z" style="fill:#263238;"></path><path d="M79.5953,421.8469c.0803,.0222,.1565-.0156,.1817-.1193,.0182-.1403,.0231-.2706,.0149-.3905,.0323-.0672,.0281-.1271,.0211-.1636,.0029-.0236,.0162-.0337-.0073-.0367,.0435-.244,.0471-.4576,.04071-.6844,.04879-.8381,.02729-1.6851-.044-2.5147-.215-3.3097-1.07911-6.7508-2.45481-9.5444-1.1768-2.3992-3.99-4.9262-6.8197-3.2699-.1026,.0581-.1951,.1293-.2876,.2007-2.3396,1.6364-1.6813,4.9199-.5108,7.0925,1.2417,2.265,3.0391,4.1854,4.9351,5.9879,1.3145,1.2397,2.6819,2.4387,3.9629,3.6622l.0203,.0265c.3279,.3157,.7851,.0896,.9475-.2463Zm-4.7318-5.26c-1.7892-1.8005-5.4408-5.3871-4.6963-8.2994,.2346-.8973,.5369-1.4885,.9055-1.8572,1.773-1.8521,4.7513,1.7904,5.4256,3.2923,.5294,1.1504,.9034,2.3996,1.27,3.6124,.2727,.9269,.4855,1.858,.6719,2.8097,.3245,1.5401,.5657,3.0814,.8535,4.6288l-.0029,.0233c.0112,.0966,.0459,.1962,.0573,.2928-.0611-.0792-.1252-.135-.1996-.2042-.166-.1877-.3219-.3625-.501-.5402-1.2384-1.2775-2.5325-2.4909-3.784-3.7583Z" style="fill:#263238;"></path></g><g><path d="M84.7134,426.4744c-2.966-4.0165-7.87131-7.5583-12.99941-7.5572-.1988,0-.19559,.2825-.0453,.3541,4.5834,2.1854,8.55971,4.5517,12.6075,7.6433,.2855,.2182,.6497-.1525,.43721-.4402Z" style="fill:#263238;"></path><path d="M85.8497,430.4519c-2.9661-4.0166-7.8715-7.5582-12.9997-7.5574-.1985,.0003-.1954,.2827-.0449,.3543,4.5829,2.1853,8.5596,4.5515,12.6074,7.6435,.2853,.2178,.6494-.1529,.4372-.4404Z" style="fill:#263238;"></path><path d="M86.9856,434.4293c-2.9659-4.0165-7.8716-7.5581-12.9994-7.5571-.1987,0-.1957,.2824-.045,.3542,4.5831,2.185,8.5593,4.5514,12.6076,7.6435,.2849,.2177,.6494-.1526,.4368-.4406Z" style="fill:#263238;"></path><path d="M88.1219,438.407c-2.9661-4.0166-7.8717-7.558-12.9998-7.5572-.1984-.0002-.1955,.2822-.0449,.3543,4.58321,2.1848,8.5597,4.5511,12.6076,7.6432,.2854,.2175,.6494-.153,.4371-.4403Z" style="fill:#263238;"></path></g></g><path d="M94.1901,457.1748c-5.8233-.7749-11.7789-.6522-17.6249-1.2243-.6836-.067-1.3671-.1339-2.0505-.2008-.7482-.0733-1.4871-.0575-2.0517-.6166-.9831-.974-1.77-2.2454-2.6133-3.3423-1.7525-2.2794-3.49429-4.5672-5.2337-6.8566-6.98959-9.1987-13.8368-18.5027-20.6198-27.8545-1.9152-2.6407-3.847-5.2692-5.765-7.9079-1.9236-2.6465-4.0193-5.1598-5.9518-7.7981-.0694-.0947-.2239-.0035-.1575,.0974,1.6279,2.4817,3.0945,5.0642,4.7698,7.5162,1.6751,2.4516,3.3459,4.9076,5.0609,7.3316,3.4047,4.8121,6.8598,9.5884,10.3583,14.3325,3.49951,4.7453,7.0356,9.4632,10.6073,14.1542,1.8009,2.3648,3.6158,4.7191,5.4373,7.0679,.8813,1.1367,1.7574,2.2779,2.651,3.4048,.7561,.9533,1.461,1.4539,2.6906,1.5727,6.7591,.6525,13.656,.4869,20.4375,.8253,.2829,.0142,.3412-.4634,.0555-.5015Z" style="fill:#263238;"></path></g></g></g><g><path d="M260.75419,197.0167s2.5041,37.0362-5.1401,45.4721c0,0-37.5945,85.8129-56.2592,103.8507-23.7707,22.9726-97.051,61.2765-97.051,61.2765l-30.7439-37.804s35.6196-34.5886,61.1752-51.1208c7.5756-4.9007,18.4784-11.2151,21.3376-12.0122,8.19961-2.2856,42.2351-64.9229,41.6883-67.0346-3.0309-11.7043,7.852-42.6277,7.852-42.6277h57.1411Z" style="fill:#f7a9a0;"></path><g><path d="M178.458,271.6063l60.0118,12.3819,19.284-41.4994s14.5768-9.7084,13.4952-45.6915h-67.8107s-11.6914,27.5602-10.7148,44.9638l-14.2655,29.8452Z" style="fill:#263238;"></path><path d="M238.46979,283.98819c3.90939-10.68414,8.39222-21.12102,13.10919-31.46596,1.86546-3.88914,3.5183-7.77979,5.70626-11.53382,3.97489-6.00867,9.67584-10.70153,15.37917-14.90478-5.94221,5.89818-12.40727,11.70531-15.71687,19.55214-5.90302,12.81663-11.8482,25.88466-18.47775,38.35241h0Z" style="fill:#455a64;"></path></g></g></g></g><g><g><g><path d="M269.79799,139.501c-4.1068-.8193-7.9345-11.3842-8.3474-17.123-.0261-.3932,1.43081-2.3385,3.6821-6.2151,1.3573-2.3582,2.8125-5.0154,3.9659-7.536l14.053,11.073s-3.9713,4.573-5.9547,8.9804c-.1617,.3703-.2816,.7285-.3644,1.0841-.0165,.05-.029,.1136-.0554,.182-.57869,2.1113-3.0095,10.343-6.9791,9.5546Z" style="fill:#f7a9a0;"></path><path d="M275.11279,132.2619c.2822,.1397,.56361,.2561,.8334,.3731,.3965-1.1347,.6828-2.1267,.8349-2.6866,.0207-.0699,.0296-.1396,.0509-.1866,.0793-.3493,.20441-.7118,.3635-1.0872,1.9833-4.4034,5.9574-8.9734,5.9574-8.9734l-14.0594-11.0784c-.2457,.5285-.4915,1.0573-.76009,1.5983-1.36751,5.7429-2.74411,17.4316,6.77939,22.0408Z" style="fill:#263238;"></path></g><g><path d="M259.01049,97.2042c-.3204,6.4375,7.1813,22.9134,12.402,25.694,7.5687,4.0318,17.7954,2.0266,20.674-6.5766,2.7905-8.3391-7.366-29.638-12.9957-31.9424-8.2922-3.3942-19.6073,3.3162-20.0803,12.825Z" style="fill:#f7a9a0;"></path><g><g><path d="M277.9884,104.9061c-.02571-.0397-.06861,.0882-.04891,.1341,.471,1.125,.822,2.4935-.0638,3.2655-.0275,.0236-.0025,.0796,.0338,.0598,1.1898-.6575,.7058-2.4689,.07891-3.4594Z" style="fill:#263238;"></path><path d="M276.51659,104.1056c-1.88519,.5615-.6239,4.2901,1.12281,3.77,1.71859-.5119,.45719-4.2407-1.12281-3.77Z" style="fill:#263238;"></path></g><g><path d="M284.78649,102.6444c-.0062-.047,.1088,.0241,.1233,.0722,.3542,1.167,.9557,2.4445,2.13061,2.4747,.03689,.001,.05319,.0601,.01249,.0678-1.3358,.2519-2.1182-1.4518-2.2664-2.6147Z" style="fill:#263238;"></path><path d="M285.40999,101.0894c1.8099-.7695,3.2158,2.9074,1.5386,3.6197-1.65019,.7019-3.0561-2.9751-1.5386-3.6197Z" style="fill:#263238;"></path></g><path d="M274.57669,103.5167c.553-.0055,1.062-.1027,1.6081-.1642,.6163-.0701,1.1142-.0621,1.6082-.4805,.2643-.2245,.2995-.7335,.1056-1.0111-.4514-.6466-1.2271-.7487-1.9723-.6949-.80889,.0584-1.41689,.3103-2.0061,.8656-.5711,.5379-.0724,1.492,.6565,1.4851Z" style="fill:#263238;"></path><path d="M286.11909,98.2054c-.52469,.1741-1.03769,.2471-1.5743,.3651-.6057,.1339-1.0743,.3026-1.6765,.0664-.3234-.1264-.5215-.5963-.4281-.9219,.2174-.758,.9184-1.1057,1.6411-1.2962,.784-.2067,1.441-.1658,2.1782,.1685,.7144,.3243,.5521,1.3885-.1404,1.6181Z" style="fill:#263238;"></path><path d="M278.3874,117.7991c.36809,.1767,.77009,.4559,1.20129,.3494,.4132-.1024,.8232-.4431,1.1433-.7108,.03141-.0264,.0816-.0002,.0701,.0427-.1501,.5443-.6869,1.0354-1.2541,1.1229-.554,.0854-.9653-.2791-1.2543-.7144-.0401-.0613,.0399-.1157,.09371-.0898Z" style="fill:#263238;"></path><path d="M280.95589,113.6105c1.9102-1.1538,3.2341-1.2597,4.5092-1.5218,.1297-.0663,.4047-.268,.384-.405l-.0032-.0086c-.0154-.0428-.9242-2.4801-.9242-2.4801,.3855,.0531,2.3226,.2402,2.1365-.2224-1.5542-3.8232-3.2821-8.0749-5.636-11.5512-.072-.1186-.25879-.0223-.2041,.1026,1.348,3.7335,3.3438,7.2049,4.7576,10.9337-.6057-.0222-1.6081-.1033-2.0769,.0661-.1158,.0805,1.1127,2.5753,1.2062,2.9946,0,0-2.272,.0007-4.3722,1.9224-.468,.4282-.474,.5909,.2231,.1697Z" style="fill:#263238;"></path><g><path d="M283.41719,115.2054c.55021-.4649,.5511-3.3266-.589-3.058-1.1405,.2689-3.3717,1.9265-3.6574,3.8628-.251,1.6978,2.5128-.5711,3.10861-.5654,.49639,.005,.74169,.0951,1.13779-.2394Z" style="fill:#263238;"></path><path d="M282.28449,115.4462c.114,.0029,.2013,.0125,.285,.0067-.28209-.8135-1.2629-1.522-2.77-.9788-.3189,.4725-.5568,.9907-.6335,1.5322-.2422,1.6953,2.52241-.5663,3.1185-.5601Z" style="fill:#ff9abb;"></path></g></g><path d="M263.74089,111.6638c2.81651-1.8897,1.0947-12.2972,1.0947-12.2972l2.403,5.2244s1.7734-2.6372,2.0801-5.4502c.2192-2.0085-.8404-4.3566-1.5345-5.4501,0,0,4.5519,1.4958,8.8394,1.1485,1.577-.1278,11.0489-3.1507,10.8386-3.7841-.6275-1.8886-5.6513-7.3664-8.93-8.1983-3.77379-.9574-11.9529-1.1398-17.5803,3.3656-4.5018,3.6042-2.7507,7.203-2.9934,10.2136,0,0-2.7754,4.1125-2.4718,5.6299,.6559,3.2775,7.2189,10.2923,8.2542,9.5979Z" style="fill:#263238;"></path><g><path d="M267.52859,109.2567s-5.4016-4.495-7.5443-2.4217c-2.1428,2.074,2.9776,9.329,6.2378,9.6227,3.2602,.2939,3.5912-2.719,3.5912-2.719l-2.2847-4.482Z" style="fill:#f7a9a0;"></path><path d="M261.50349,108.8784c-.0485,.0089-.0394,.0779,.0064,.0835,2.3046,.274,3.9223,1.9002,5.2323,3.686-.8271-.5995-1.7822-.7904-2.6104,.2247-.04339,.0533,.0315,.1241,.0863,.0957,.8006-.4143,1.4541-.4342,2.2144,.0896,.538,.371,.9823,.9047,1.4256,1.3816,.1477,.1594,.4554-.0317,.3266-.2259-.00929-.0143-.0202-.0291-.0302-.0436-.6697-2.6598-3.7374-5.801-6.651-5.2916Z" style="fill:#263238;"></path></g></g></g><g><path d="M197.9916,201.7436l75.6263,5.9113c.4444-.2523-1.4498-7.3108-.7686-17.9497,1.2203-19.0611,4.5464-48.2253,.5982-60.4499-1.5385-4.763-8.9367-8.3491-14.7919-7.0331-26.1841,5.8852-61.0133,78.664-60.664,79.5214Z" style="fill:#56534B;"></path><g><path d="M246.8634,150.8534c-6.82,11.69-12.34,24.13-16.14,32.39-2.97,6.74-5.8,13.55-8.53,20.39l-2.97-.23c5.84-13.33,15.19-34.97,26.38-52.89,.43,.12,.85,.23,1.26,.34Z" style="fill:#fff;"></path><path d="M249.8134,151.6334c-6.35,12.2-11.51,24.93-14.53,32.18-2.68,6.7-5.23,13.45-7.67,20.24l-2.99-.23c4.88-12.24,13.67-34.15,23.93-52.52,.43,.11,.85,.22,1.26,.33Z" style="fill:#fff;"></path></g><path d="M275.2134,153.7734c-5.45,0-10.99,0-14.07-.01-5.32-.02-21.64-4.9-30.55-7.7,9.2-12.06,19.13-21.84,28.06-23.84,5.86-1.32,13.26,2.27,14.79,7.03,1.79,5.54,2.09,14.55,1.77,24.52Z" style="opacity:.1;"></path></g></g><g><g><path d="M307.00675,28.5882c-9.87139,5.57211-11.48799,21.40856-3.60843,35.36747,7.87948,13.95898,22.26888,20.75033,32.14028,15.17821,9.87138-5.57225,11.48588-21.39748,3.60646-35.35639-7.87962-13.95899-22.26699-20.76147-32.13831-15.18928Zm27.00267,47.8366c-8.81566,4.97633-21.66043-1.08947-28.69469-13.55088-7.03419-12.46148-5.59035-26.59288,3.22537-31.56913,8.80951-4.97276,21.65429,1.09304,28.68848,13.55452,7.03426,12.46141,5.59028,26.5928-3.21916,31.56549Z" style="fill:#56534B;"></path><rect x="347.28299" y="74.4186" width="2.40959" height="55.32537" transform="translate(-5.16914 184.48946) rotate(-29.44355)" style="fill:#56534B;"></rect><g><polygon points="365.09797 125.57692 380.00307 151.98218 374.92609 154.84809 360.02092 128.44276 358.60478 120.0041 365.09797 125.57692" style="fill:#56534B;"></polygon><rect x="367.097" y="125.05166" width="5.83003" height="30.32165" transform="translate(-21.13321 199.99414) rotate(-29.44342)" style="opacity:.1;"></rect></g><path d="M327.78358,78.15171l1.40001-.79034,.34815,.61676c.12588-.02008,.25009-.04592,.37505-.06941l-.40899-.72468,1.63585-.92343,.65095,1.15316c.11562-.03936,.23142-.07821,.34603-.12091l-.68278-1.20959,1.63592-.9235,.76194,1.34986c.05412-.02947,.10993-.05445,.16372-.08484,.05157-.02909,.09953-.06248,.15062-.09221l-.76215-1.35008,1.63657-.92384,.68333,1.21059c.09581-.07612,.18871-.15526,.28231-.23384l-.65144-1.15408,1.63585-.92343,.40968,.72582c.08475-.09477,.17124-.18775,.25349-.28497l-.34897-.61819,1.40286-.79185c.1623-.2471,.31702-.50104,.46644-.75947l-.13156,.07422-1.10611-1.95948,1.63585-.92343,.53007,.93903c.05983-.14188,.11359-.28833,.17-.43275l-.38588-.68361,.78689-.44419c.06292-.19713,.1222-.39645,.17938-.59736l-1.17866,.66528-1.1059-1.95912,1.63592-.9235,.84365,1.4945c.04242-.17345,.07889-.35046,.11711-.52639l-.64655-1.14545,.94523-.53356c.02445-.17694,.0463-.35499,.06681-.53384l-1.22444,.69115-1.10589-1.95913,1.63648-.92376,.77245,1.36836c.01734-.2161,.03553-.43162,.04727-.65023l-.50552-.89546,.5399-.30479c.00109-.16398-.00133-.32916-.00325-.49426l-.74904,.42278-1.10604-1.95955,1.63585-.92343,.09762,.17292c-.02831-.30255-.06191-.60624-.10015-.9113l-1.00156-1.77434,.65625-.37044c-.02924-.14789-.0606-.29597-.09211-.44418l-.77654,.43836-1.10611-1.95948,1.31552-.74268c-.04095-.14243-.0792-.28454-.12233-.42709l-1.40558,.7935-1.1059-1.95912,1.63592-.9235,.47005,.83268c-.26664-.7729-.56516-1.54573-.89337-2.31645l-.58104-1.02938,.09664-.05454c-.0608-.13076-.12182-.26146-.18446-.39198l-.12449,.07031-1.10598-1.95918,.19493-.10997c-.0345-.06191-.06586-.12435-.10079-.18612-.03636-.06443-.0751-.12599-.11182-.19007l-.19463,.10996-1.10598-1.95918,.12421-.07004c-.07943-.12112-.16009-.24063-.24067-.36035l-.09591,.05412-.57666-1.02166c-.49027-.67928-.99778-1.33426-1.5217-1.96185l.46581,.8251-1.636,.92343-1.1059-1.95912,1.40379-.79247c-.0997-.11044-.20166-.21675-.30238-.32536l-1.31379,.74157-1.10611-1.95948,.77411-.43698c-.11064-.10349-.22114-.20697-.33267-.30835l-.65383,.36907-.99731-1.76677c-.24137-.19035-.4841-.37606-.72847-.5567l.09337,.16535-1.63592,.9235-1.1059-1.95912,.74496-.42052c-.14042-.08696-.28055-.17449-.42151-.25829l-.53584,.30254-.5014-.88831c-.19318-.10288-.38713-.19862-.58105-.2955l.76825,1.36115-1.63649,.92377-1.10611-1.95948,1.21873-.68799c-.16369-.07478-.32747-.14822-.49151-.21876l-.9396,.53049-.6423-1.13787c-.17041-.05814-.34072-.11832-.51122-.17165l.83932,1.48686-1.63584,.92342-1.10598-1.95918,1.1711-.66104c-.20188-.05486-.40337-.10676-.60495-.15468l-.77846,.43951-.38163-.67603c-.15287-.02629-.30595-.05598-.4584-.07809l.52582,.93146-1.63599,.92343-1.10604-1.95955,.11785-.06654c-.29906-.00536-.59718-.00371-.89335,.00817l-1.38701,.78293-.34465-.61054c-.12573,.02007-.25003,.04613-.37498,.06962l.40544,.71824-1.63586,.92344-.64717-1.14652c-.1156,.03963-.23142,.07821-.3461,.12097l.67908,1.20287-1.63657,.92384-.75776-1.34251c-.05184,.02837-.1053,.05219-.15686,.08128-.05377,.03038-.10397,.06523-.1572,.09634l.75762,1.34222-1.63585,.92343-.67852-1.20201c-.09574,.07605-.18878,.15519-.28237,.23376l.6467,1.14558-1.63593,.92351-.40467-.71704c-.08468,.09484-.1711,.18789-.25328,.28518l.34382,.60911-1.38408,.78136c-.1633,.2475-.31887,.50186-.46901,.76084l.11535-.0651,1.10612,1.95947-1.63593,.92351-.52493-.92996c-.05976,.14196-.11352,.28826-.17007,.43268l.3808,.67461-.77696,.43863c-.06313,.19734-.12298,.39665-.18031,.59784l1.16974-.66029,1.10582,1.9592-1.63649,.92377-.83823-1.48486c-.04242,.17345-.07888,.35031-.11718,.52631l.64121,1.13588-.93817,.52966c-.02452,.17687-.04623,.35506-.06681,.53384l1.21737-.68724,1.10618,1.95955-1.63598,.92342-.76778-1.36021c-.01727,.21617-.03561,.4317-.04728,.65024l.50092,.88739-.53547,.30218c-.00124,.16398,.00141,.32922,.00318,.49433l.74461-.42031,1.10597,1.95919-1.63592,.92336-.09309-.16492c.02831,.30255,.06191,.60624,.10001,.91115l.99724,1.76656-.65383,.36907c.02918,.14781,.0606,.29597,.09204,.44411l.77411-.43698,1.10611,1.95962-1.31379,.74156c.04093,.14245,.07925,.28463,.12231,.42711l1.40393-.79247,1.10583,1.95919-1.63591,.92335-.46594-.82538c.26657,.77269,.56496,1.54537,.89303,2.31594l.57727,1.0226-.09607,.05426c.0608,.13076,.1216,.26153,.18418,.3921l.12427-.0701,1.10583,1.95919-.19478,.10997c.03586,.06449,.06853,.12941,.10489,.19384,.03492,.06178,.07222,.12099,.10735,.18243l.19499-.11003,1.10583,1.95919-.12464,.07031c.07943,.12112,.1598,.24091,.24031,.36056l.09672-.05461,.58158,1.03025c.49013,.67899,.99751,1.33368,1.52136,1.96121l-.47025-.83303,1.63592-.9235,1.10583,1.95919-1.40565,.79343c.0997,.11058,.20173,.21682,.30245,.32544l1.31565-.74267,1.10604,1.95955-.77646,.43829c.11057,.10356,.22114,.20697,.33274,.30843l.65611-.37044,1.00149,1.77413c.24137,.19035,.4841,.37592,.72848,.55656l-.09748-.17264,1.63599-.92343,1.10604,1.95955-.74867,.42257c.14041,.08697,.28061,.17443,.42158,.25822l.53947-.30452,.50504,.89453c.19311,.10295,.38713,.19862,.58112,.29558l-.77203-1.36751,1.636-.92343,1.10589,1.95913-1.22308,.69039c.16377,.07484,.32747,.14822,.49159,.21869l.94389-.53283,.64545,1.1436c.17049,.05807,.34079,.11825,.51115,.17158l-.84241-1.4925,1.63649-.92377,1.1059,1.95912-1.1773,.66453c.20159,.05486,.40294,.10703,.6043,.15503l.78539-.44329,.38505,.68218c.1528,.02622,.30588,.05591,.45833,.07801l-.52918-.93753,1.63585-.92343,1.10612,1.95947-.12893,.07279c.29849,.00563,.59589,.00439,.89142-.007Zm1.50175-1.34387l-1.10604-1.95955,1.63585-.92343,1.10611,1.95948-1.63592,.9235Zm-5.8021-23.94657l1.63592-.9235,1.10597,1.95919-1.63599,.92343-1.1059-1.95912Zm.79171,2.13644l-1.6365,.92378-1.1059-1.95912,1.63649-.92377,1.10591,1.95911Zm-1.0041-2.51271l-1.1059-1.95912,1.63592-.9235,1.1059,1.95912-1.63592,.9235Zm-.31419,.17732l-1.6365,.92378-1.1059-1.95912,1.63649-.92377,1.10591,1.95911Zm-2.95479-1.41161l-1.10611-1.95948,1.63657-.92384,1.10605,1.95954-1.6365,.92378Zm-.3142,.17733l-1.63585,.92343-1.10611-1.95948,1.63585-.92343,1.10611,1.95948Zm.21239,.37627l1.1059,1.95912-1.63592,.9235-1.10583-1.95919,1.63585-.92343Zm-.84422,3.05995l-1.63585,.92343-1.1059-1.95912,1.63592-.9235,1.10583,1.95919Zm.21246,.3762l1.10583,1.95919-1.63585,.92343-1.1059-1.95912,1.63592-.9235Zm.3142-.17733l1.63585-.92343,1.10597,1.95919-1.63599,.92343-1.10583-1.95919Zm2.95414,1.41196l1.10618,1.95955-1.63599,.92343-1.1061-1.95949,1.63591-.92349Zm.3142-.17733l1.63649-.92377,1.10618,1.95955-1.63655,.92369-1.10612-1.95947Zm2.95499,1.41198l1.10597,1.95919-1.63657,.92384-1.1059-1.95926,1.63649-.92377Zm.3142-.17733l1.63592-.92336,1.1059,1.95912-1.63592,.92336-1.1059-1.95912Zm-.21239-.37627l-1.10611-1.95948,1.63592-.9235,1.10611,1.95962-1.63592,.92336Zm.84401-3.06031l1.63585-.92343,1.10618,1.95955-1.63599,.92343-1.10604-1.95955Zm-.21246-.3762l-1.10583-1.95919,1.63585-.92343,1.10597,1.95919-1.63599,.92343Zm-1.31822-2.33546l-1.1059-1.95912,1.63585-.92343,1.10597,1.95919-1.63592,.92336Zm-1.31829-2.33539l-1.10611-1.95948,1.63592-.9235,1.10604,1.95955-1.63585,.92343Zm-.3142,.17733l-1.63592,.9235-1.10604-1.95955,1.63586-.92344,1.1061,1.95949Zm-2.95442-1.41225l-1.10583-1.95919,1.63586-.92344,1.10589,1.95913-1.63592,.9235Zm-.31413,.17726l-1.63657,.92384-1.1059-1.95912,1.63657-.92384,1.1059,1.95912Zm-2.95486-1.41155l-1.10604-1.95955,1.63649-.92377,1.10611,1.95948-1.63657,.92384Zm-.31419,.17732l-1.63586,.92344-1.10611-1.95948,1.63592-.9235,1.10605,1.95954Zm.21245,.37621l1.10584,1.95918-1.63586,.92344-1.1059-1.95912,1.63592-.9235Zm-.84422,3.05995l-1.63592,.9235-1.10583-1.95919,1.63586-.92344,1.10589,1.95913Zm.2124,.37626l1.1061,1.95949-1.63592,.9235-1.10611-1.95948,1.63593-.92351Zm-.84401,3.06031l-1.63586,.92344-1.10611-1.95948,1.63592-.9235,1.10605,1.95954Zm.21238,.37628l1.10591,1.95911-1.63586,.92344-1.1059-1.95912,1.63585-.92343Zm1.31829,2.33539l1.10591,1.95911-1.63593,.92351-1.10583-1.95919,1.63585-.92343Zm1.31829,2.33539l1.10618,1.95955-1.63599,.92343-1.10611-1.95948,1.63592-.9235Zm.3142-.17733l1.63585-.92343,1.10618,1.95955-1.63592,.92336-1.10611-1.95948Zm2.95435,1.41232l1.10597,1.95919-1.63598,.92342-1.10584-1.95918,1.63585-.92343Zm.3142-.17733l1.63599-.92343,1.10583,1.95919-1.63592,.92336-1.1059-1.95912Zm2.95428,1.41197l1.10604,1.95955-1.63585,.92343-1.10618-1.95955,1.63599-.92343Zm.31406-.17733l1.63664-.92377,1.10611,1.95948-1.63657,.92384-1.10618-1.95955Zm2.95513,1.41198l1.10583,1.95919-1.63649,.92377-1.1059-1.95912,1.63657-.92384Zm.31413-.1774l1.63592-.92336,1.1059,1.95912-1.63592,.9235-1.1059-1.95926Zm-.21239-.37613l-1.10611-1.95962,1.63592-.92336,1.10611,1.95948-1.63592,.9235Zm.84394-3.06038l1.63599-.92343,1.10604,1.95955-1.63585,.92343-1.10618-1.95955Zm-.21239-.37627l-1.1059-1.95912,1.63599-.92343,1.1059,1.95912-1.63599,.92343Zm.84422-3.05995l1.63592-.92336,1.1059,1.95912-1.63584,.92342-1.10598-1.95919Zm-.21238-.37628l-1.10612-1.95947,1.63599-.92343,1.10604,1.95955-1.63591,.92335Zm-1.31851-2.33574l-1.1059-1.95912,1.63599-.92343,1.10583,1.95919-1.63592,.92336Zm-1.31829-2.33539l-1.1059-1.95912,1.63592-.9235,1.10597,1.95919-1.63599,.92343Zm-1.31829-2.33539l-1.10604-1.95955,1.63585-.92343,1.10618,1.95955-1.63599,.92343Zm-1.3185-2.33575l-1.10583-1.95919,1.63585-.92343,1.1059,1.95912-1.63592,.9235Zm-.31419,.17732l-1.63586,.92344-1.1059-1.95912,1.63592-.9235,1.10584,1.95918Zm-2.95415-1.41195l-1.10611-1.95948,1.63592-.9235,1.10611,1.95948-1.63592,.9235Zm-.3142,.17733l-1.63585,.92343-1.10618-1.95955,1.63592-.92336,1.10611,1.95948Zm-2.95435-1.41232l-1.10597-1.95919,1.63599-.92343,1.10583,1.95919-1.63585,.92343Zm-.3142,.17733l-1.63649,.92377-1.1059-1.95912,1.63649-.92377,1.1059,1.95912Zm-2.95478-1.41162l-1.10597-1.95919,1.63656-.9237,1.1059,1.95912-1.63649,.92377Zm-.3142,.17733l-1.63592,.9235-1.1059-1.95926,1.63592-.92336,1.1059,1.95912Zm.21239,.37627l1.1059,1.95912-1.63592,.9235-1.10597-1.95919,1.63599-.92343Zm-.84422,3.05995l-1.63585,.92343-1.10597-1.95919,1.63592-.92336,1.1059,1.95912Zm.21239,.37627l1.10611,1.95948-1.63592,.9235-1.10611-1.95962,1.63592-.92336Zm-.84394,3.06024l-1.63592,.9235-1.10618-1.95955,1.63599-.92343,1.10611,1.95948Zm.21239,.37627l1.10583,1.95919-1.63585,.92343-1.10597-1.95919,1.63599-.92343Zm-.84422,3.05995l-1.63592,.9235-1.1059-1.95926,1.63592-.92336,1.1059,1.95912Zm.21239,.37627l1.10611,1.95948-1.63592,.9235-1.10611-1.95962,1.63592-.92336Zm1.3185,2.33574l1.10589,1.95913-1.63592,.9235-1.1059-1.95912,1.63593-.92351Zm1.31829,2.33539l1.10582,1.9592-1.63585,.92343-1.1059-1.95912,1.63593-.92351Zm1.31829,2.33539l1.10603,1.95956-1.63585,.92343-1.10611-1.95948,1.63593-.92351Zm1.31841,2.33583l1.1059,1.95912-1.63585,.92343-1.1059-1.95912,1.63585-.92343Zm.31421-.17734l1.63591-.92349,1.10597,1.95919-1.63599,.92343-1.10589-1.95913Zm2.9542,1.4119l1.10611,1.95962-1.63592,.92336-1.1061-1.95949,1.63591-.92349Zm.3142-.17733l1.63592-.92336,1.10611,1.95948-1.63599,.92343-1.10604-1.95955Zm2.95442,1.41239l1.1059,1.95912-1.63592,.9235-1.10597-1.95919,1.63599-.92343Zm.31413-.1774l1.63593-.92336,1.10589,1.95913-1.63585,.92343-1.10597-1.95919Zm2.95422,1.41203l1.1061,1.95949-1.63592,.9235-1.10604-1.95955,1.63586-.92344Zm.31419-.17732l1.63657-.92384,1.10604,1.95955-1.63649,.92377-1.10611-1.95948Zm2.955,1.41197l1.10589,1.95913-1.63649,.92377-1.1059-1.95912,1.6365-.92378Zm.31419-.17732l1.63592-.9235,1.10584,1.95918-1.63586,.92344-1.1059-1.95912Zm-.21239-.37627l-1.10618-1.95955,1.63599-.92343,1.10611,1.95948-1.63592,.9235Zm.84401-3.06031l1.63586-.92344,1.1061,1.95949-1.63585,.92343-1.10611-1.95948Zm-.21239-.37627l-1.1059-1.95912,1.63592-.9235,1.10583,1.95919-1.63585,.92343Zm.84415-3.05988l1.63592-.9235,1.1059,1.95912-1.63592,.9235-1.1059-1.95912Zm-.21239-.37627l-1.10611-1.95962,1.63592-.92336,1.10611,1.95948-1.63592,.9235Zm.84401-3.06031l1.63592-.9235,1.10604,1.95955-1.63585,.92343-1.10611-1.95948Zm-.21239-.37627l-1.10597-1.95919,1.63599-.92343,1.1059,1.95912-1.63592,.9235Zm-1.31829-2.33539l-1.10618-1.95955,1.63599-.92343,1.10611,1.95948-1.63592,.9235Zm-1.31857-2.33582l-1.10582-1.9592,1.63591-.92335,1.1059,1.95912-1.63599,.92343Zm.84422-3.05995l1.63649-.92377,1.10597,1.95919-1.63648,.92376-1.10598-1.95919Zm-.21238-.37628l-1.10591-1.95911,1.63657-.92384,1.1059,1.95926-1.63655,.92369Zm-.31414,.17741l-1.63592,.92336-1.10589-1.95913,1.63591-.92335,1.1059,1.95912Zm-2.95421-1.41203l-1.10611-1.95948,1.63592-.9235,1.10611,1.95962-1.63592,.92336Zm-1.3185-2.33575l-1.1059-1.95912,1.63592-.9235,1.10583,1.95919-1.63585,.92343Zm-1.31829-2.33539l-1.10611-1.95948,1.63592-.9235,1.10612,1.95947-1.63593,.92351Zm-.3142,.17733l-1.63585,.92343-1.10611-1.95948,1.63586-.92344,1.1061,1.95949Zm-2.95435-1.41232l-1.1059-1.95912,1.63592-.9235,1.10583,1.95919-1.63585,.92343Zm-.3142,.17733l-1.63592,.9235-1.10583-1.95919,1.63585-.92343,1.1059,1.95912Zm-2.95421-1.41189l-1.1059-1.95926,1.63592-.92336,1.1059,1.95912-1.63592,.9235Zm-.31413,.17726l-1.63592,.9235-1.10597-1.95919,1.63599-.92343,1.1059,1.95912Zm-2.95428-1.41197l-1.1061-1.95949,1.63598-.92342,1.10611,1.95948-1.63599,.92343Zm-.31413,.1774l-1.63649,.92377-1.10618-1.95955,1.63657-.92384,1.10611,1.95962Zm-1.95069,1.1011l-1.63599,.92343-1.10604-1.95955,1.63592-.92336,1.10611,1.95948Zm-1.95012,1.10083l-1.63592,.92336-1.1061-1.95949,1.63591-.92349,1.10611,1.95962Zm.21246,.3762l1.10583,1.95919-1.63592,.92336-1.1059-1.95912,1.63599-.92343Zm-.84422,3.05995l-1.63598,.92342-1.10584-1.95918,1.63592-.92336,1.1059,1.95912Zm.21239,.37627l1.1059,1.95912-1.63598,.92342-1.10591-1.95911,1.63599-.92343Zm-.84422,3.05995l-1.63592,.92336-1.10589-1.95913,1.63598-.92342,1.10583,1.95919Zm.21239,.37627l1.10611,1.95948-1.63585,.92343-1.10617-1.95956,1.63591-.92335Zm-.84394,3.06024l-1.63657,.92384-1.10611-1.95962,1.63656-.9237,1.10611,1.95948Zm.21239,.37627l1.10583,1.95919-1.63649,.92377-1.1059-1.95912,1.63657-.92384Zm1.31829,2.33539l1.10604,1.95955-1.63649,.92377-1.10611-1.95948,1.63657-.92384Zm1.31842,2.33582l1.1059,1.95912-1.63649,.92377-1.1059-1.95912,1.63649-.92377Zm-.84478,3.06021l-1.63593,.92351-1.10583-1.95919,1.63585-.92343,1.10591,1.95911Zm.21238,.37628l1.10591,1.95911-1.63593,.92351-1.1059-1.95912,1.63592-.9235Zm.3142-.17733l1.63649-.92377,1.1059,1.95912-1.63649,.92377-1.1059-1.95912Zm2.95478,1.41162l1.10612,1.95947-1.63657,.92384-1.10605-1.95954,1.63649-.92377Zm1.3185,2.33575l1.10591,1.95911-1.63657,.92384-1.10584-1.95918,1.63649-.92377Zm1.31829,2.33539l1.10611,1.95962-1.63656,.9237-1.10611-1.95948,1.63657-.92384Zm.3142-.17733l1.63585-.92343,1.10618,1.95955-1.63598,.92342-1.10605-1.95954Zm2.95442,1.41239l1.1059,1.95912-1.63598,.92342-1.10591-1.95911,1.63599-.92343Zm.31413-.1774l1.63592-.92336,1.1059,1.95912-1.63592,.92336-1.1059-1.95912Zm2.95421,1.41203l1.10611,1.95948-1.63592,.9235-1.10611-1.95962,1.63592-.92336Zm.31413-.1774l1.63599-.92343,1.10605,1.95954-1.63586,.92344-1.10618-1.95955Zm2.95449,1.41232l1.10584,1.95918-1.63586,.92344-1.1059-1.95912,1.63592-.9235Zm.31413-.17726l1.63592-.9235,1.1059,1.95912-1.63592,.9235-1.1059-1.95912Zm2.95421,1.41189l1.1059,1.95912-1.63592,.9235-1.1059-1.95912,1.63592-.9235Zm.3142-.17733l1.6365-.92378,1.10589,1.95913-1.63649,.92377-1.1059-1.95912Zm1.95069-1.1011l1.63592-.9235,1.10584,1.95918-1.63586,.92344-1.1059-1.95912Zm1.95012-1.10083l1.63585-.92343,1.1059,1.95912-1.63592,.9235-1.10583-1.95919Zm-.21246-.3762l-1.10583-1.95919,1.63585-.92343,1.1059,1.95912-1.63592,.9235Zm.84422-3.05995l1.63592-.9235,1.10583,1.95919-1.63585,.92343-1.1059-1.95912Zm-.21239-.37627l-1.10611-1.95948,1.63592-.9235,1.10612,1.95947-1.63593,.92351Zm.84401-3.06031l1.63585-.92343,1.10611,1.95948-1.63592,.9235-1.10604-1.95955Zm-.21239-.37627l-1.1059-1.95912,1.63585-.92343,1.1059,1.95912-1.63585,.92343Zm.84415-3.05988l1.63657-.92384,1.10583,1.95919-1.63649,.92377-1.1059-1.95912Zm-.21239-.37627l-1.10604-1.95955,1.63649-.92377,1.10611,1.95948-1.63657,.92384Zm-1.3185-2.33575l-1.10583-1.95919,1.63649-.92377,1.1059,1.95912-1.63657,.92384Zm-1.31822-2.33546l-1.10618-1.95955,1.63656-.9237,1.10611,1.95948-1.63649,.92377Zm.84451-3.06065l1.63599-.92343,1.10604,1.95955-1.63584,.92342-1.10619-1.95954Zm-.21239-.37627l-1.1059-1.95912,1.63599-.92343,1.1059,1.95912-1.63599,.92343Zm-1.31829-2.33539l-1.1059-1.95912,1.63592-.9235,1.10597,1.95919-1.63599,.92343Zm-1.31829-2.33539l-1.10604-1.95955,1.63585-.92343,1.10618,1.95955-1.63599,.92343Zm-.31413,.1774l-1.63655,.92369-1.10612-1.95947,1.63657-.92384,1.10611,1.95962Zm-2.95506-1.41205l-1.10583-1.95919,1.63649-.92377,1.1059,1.95912-1.63657,.92384Zm-1.31829-2.33539l-1.10604-1.95955,1.63649-.92377,1.10611,1.95948-1.63657,.92384Zm-1.31842-2.33582l-1.1059-1.95912,1.63649-.92377,1.1059,1.95912-1.63649,.92377Zm-.3142,.17733l-1.63592,.9235-1.1059-1.95912,1.63592-.9235,1.1059,1.95912Zm-2.95421-1.41189l-1.10583-1.95919,1.63585-.92343,1.1059,1.95912-1.63592,.9235Zm-.3142,.17733l-1.63585,.92343-1.1059-1.95912,1.63592-.9235,1.10583,1.95919Zm-2.95414-1.41196l-1.10618-1.95955,1.63599-.92343,1.10611,1.95948-1.63592,.9235Zm-.3142,.17733l-1.63584,.92342-1.10619-1.95954,1.63592-.92336,1.10611,1.95948Zm-2.95442-1.41239l-1.1059-1.95912,1.63599-.92343,1.10583,1.95919-1.63592,.92336Zm-.31413,.1774l-1.63599,.92343-1.10583-1.95919,1.63585-.92343,1.10597,1.95919Zm-1.95012,1.10083l-1.63656,.9237-1.1059-1.95912,1.63657-.92384,1.1059,1.95926Zm-1.95069,1.1011l-1.63592,.92336-1.1059-1.95912,1.63592-.92336,1.1059,1.95912Zm-1.95005,1.10076l-1.63599,.92343-1.10589-1.95913,1.63591-.92349,1.10597,1.95919Zm-1.95012,1.10083l-1.63592,.92336-1.1059-1.95912,1.63585-.92343,1.10597,1.95919Zm.21232,.3762l1.10618,1.95955-1.63598,.92342-1.10605-1.95954,1.63585-.92343Zm-.84387,3.06031l-1.63599,.92343-1.10611-1.95948,1.63592-.9235,1.10618,1.95955Zm.21232,.3762l1.1059,1.95926-1.63592,.92336-1.10589-1.95913,1.63591-.92349Zm-.84415,3.06002l-1.63656,.9237-1.1059-1.95912,1.63649-.92377,1.10597,1.95919Zm.21232,.3762l1.10597,1.95919-1.63664,.92377-1.10583-1.95919,1.63649-.92377Zm-.84472,3.06029l-1.63598,.92342-1.10591-1.95911,1.63599-.92343,1.1059,1.95912Zm.21239,.37627l1.10604,1.95955-1.63585,.92343-1.10618-1.95955,1.63599-.92343Zm1.31842,2.33582l1.1059,1.95912-1.63585,.92343-1.10597-1.95919,1.63592-.92336Zm1.31829,2.33539l1.10612,1.95947-1.63593,.92351-1.10604-1.95955,1.63585-.92343Zm-.84394,3.06024l-1.63592,.9235-1.10618-1.95955,1.63599-.92343,1.10611,1.95948Zm.21239,.37626l1.10582,1.9592-1.63585,.92343-1.1059-1.95912,1.63593-.92351Zm1.31829,2.33539l1.10582,1.9592-1.63585,.92343-1.1059-1.95912,1.63593-.92351Zm1.31821,2.33547l1.10611,1.95948-1.63585,.92343-1.10611-1.95948,1.63585-.92343Zm.3142-.17733l1.63592-.9235,1.10611,1.95948-1.63592,.9235-1.10611-1.95948Zm2.95442,1.41225l1.1059,1.95926-1.63592,.92336-1.10589-1.95913,1.63591-.92349Zm1.31822,2.33546l1.10618,1.95955-1.63592,.92336-1.1061-1.95949,1.63584-.92342Zm1.31857,2.33582l1.1059,1.95912-1.63599,.92343-1.10583-1.95919,1.63592-.92336Zm.31413-.1774l1.63657-.92384,1.1059,1.95926-1.63656,.9237-1.1059-1.95912Zm2.95485,1.41169l1.10611,1.95948-1.63649,.92377-1.10618-1.95955,1.63656-.9237Zm.31413-.1774l1.63599-.92343,1.10611,1.95948-1.63592,.9235-1.10618-1.95955Zm2.95449,1.41232l1.10583,1.95919-1.63585,.92343-1.10597-1.95919,1.63599-.92343Zm.31413-.1774l1.63593-.92336,1.10589,1.95913-1.63592,.9235-1.1059-1.95926Zm2.95422,1.41203l1.10589,1.95913-1.63592,.9235-1.1059-1.95912,1.63593-.92351Zm.31419-.17732l1.63585-.92343,1.10591,1.95911-1.63586,.92344-1.1059-1.95912Zm4.37445,3.19411l-1.10611-1.95948,1.63592-.9235,1.10604,1.95955-1.63585,.92343Zm1.95005-1.10076l-1.10604-1.95955,1.6365-.92378,1.1061,1.95949-1.63657,.92384Zm1.95077-1.10117l-1.10611-1.95948,1.63585-.92343,1.10611,1.95948-1.63585,.92343Zm3.58604-2.02418l-1.63599,.92343-1.10611-1.95948,1.63592-.9235,1.10618,1.95955Zm.63149-3.43658l-1.63585,.92343-1.1059-1.95912,1.63592-.9235,1.10583,1.95919Zm.63183-3.43622l-1.63592,.9235-1.10583-1.95919,1.63585-.92343,1.1059,1.95912Zm.6324-3.43649l-1.63649,.92377-1.10611-1.95948,1.63657-.92384,1.10604,1.95955Zm.63163-3.43657l-1.63592,.9235-1.10583-1.95919,1.63585-.92343,1.1059,1.95912Zm-1.31829-2.33539l-1.63585,.92343-1.10618-1.95955,1.63592-.92336,1.10611,1.95948Zm-1.3185-2.33575l-1.63584,.92342-1.10598-1.95919,1.63599-.92343,1.10583,1.95919Zm.63183-3.43622l-1.63592,.9235-1.1061-1.95963,1.63591-.92335,1.10611,1.95948Zm-1.3185-2.33575l-1.63592,.92336-1.10589-1.95913,1.63591-.92335,1.1059,1.95912Zm-1.31829-2.33539l-1.63592,.92336-1.10589-1.95913,1.63591-.92335,1.1059,1.95912Zm-2.4244-4.29501l1.10611,1.95962-1.63592,.92336-1.10611-1.95948,1.63592-.9235Zm-2.16251,.72456l-1.63585,.92343-1.1059-1.95912,1.63585-.92343,1.1059,1.95912Zm-1.31829-2.33539l-1.63585,.92343-1.10611-1.95948,1.63592-.9235,1.10604,1.95955Zm-2.42433-4.29494l1.10583,1.95919-1.63585,.92343-1.1059-1.95912,1.63592-.9235Zm-3.26841-1.23456l1.1059,1.95912-1.63649,.92377-1.1059-1.95912,1.63649-.92377Zm-3.26919-1.23465l1.10611,1.95948-1.63592,.9235-1.10611-1.95962,1.63592-.92336Zm-3.26834-1.23463l1.1059,1.95912-1.63599,.92343-1.1059-1.95912,1.63599-.92343Zm-3.26862-1.23506l1.10611,1.95962-1.63592,.92336-1.10611-1.95948,1.63592-.9235Zm-1.95012,1.10083l1.10618,1.95955-1.63599,.92343-1.10604-1.95955,1.63585-.92343Zm-1.95004,1.10075l1.1061,1.95949-1.63657,.92384-1.10604-1.95955,1.6365-.92378Zm-1.9507,1.10111l1.10611,1.95962-1.63592,.92336-1.10611-1.95948,1.63592-.9235Zm-1.95012,1.10083l1.10618,1.95955-1.63599,.92343-1.10604-1.95955,1.63585-.92343Zm-3.58597,2.02426l1.63593-.92351,1.10603,1.95956-1.63585,.92343-1.10611-1.95948Zm-.63163,3.43657l1.63592-.9235,1.10591,1.95911-1.63593,.92351-1.1059-1.95912Zm-.63239,3.43648l1.63649-.92376,1.10611,1.95948-1.63649,.92377-1.1061-1.95949Zm-.63164,3.43658l1.63592-.9235,1.10597,1.95919-1.63598,.92342-1.10591-1.95911Zm-.63175,3.43614l1.63584-.92342,1.10597,1.95919-1.63592,.92336-1.10589-1.95913Zm1.31829,2.33539l1.63591-.92335,1.10611,1.95948-1.63599,.92343-1.10603-1.95956Zm1.31841,2.33583l1.63599-.92343,1.1059,1.95912-1.63592,.9235-1.10597-1.95919Zm-.63176,3.43615l1.63592-.92336,1.10611,1.95948-1.63585,.92343-1.10618-1.95955Zm1.3185,2.33575l1.63592-.92336,1.1059,1.95912-1.63592,.9235-1.1059-1.95926Zm1.31836,2.33546l1.63585-.92343,1.1059,1.95912-1.63592,.9235-1.10583-1.95919Zm2.42433,4.29494l-1.10611-1.95948,1.63592-.9235,1.10612,1.95947-1.63593,.92351Zm2.16251-.72456l1.63585-.92343,1.1059,1.95912-1.63592,.9235-1.10583-1.95919Zm1.31822,2.33546l1.63592-.9235,1.10618,1.95955-1.63598,.92342-1.10612-1.95947Zm2.42441,4.29486l-1.10591-1.95911,1.63592-.9235,1.10597,1.95919-1.63598,.92342Zm3.26861,1.23507l-1.10611-1.95962,1.63592-.92336,1.10611,1.95948-1.63592,.9235Zm3.26841,1.23456l-1.1059-1.95912,1.63649-.92377,1.1059,1.95912-1.63649,.92377Zm3.26898,1.23429l-1.10597-1.95919,1.63599-.92343,1.10583,1.95919-1.63585,.92343Zm2.16244-.72449l1.63593-.92351,1.1061,1.95949-1.63592,.9235-1.10611-1.95948Z" style="fill:#c7c7c7;"></path></g><g><path d="M267.11979,135.47776c6.44457,10.99178,43.92251,35.49444,49.40025,37.15908,6.88732,2.09299,33.85485-6.98092,44.95572-15.00746,3.01751-2.18177-15.75077-27.56068-19.17594-25.53171-7.04542,4.17363-24.01336,11.67498-27.02059,11.61465-3.00744-.06013-27.29607-9.45652-39.61535-14.82341-10.38533-4.52463-11.80391,1.02925-8.54409,6.58886Z" style="fill:#f7a9a0;"></path><g><path d="M330.27891,149.98757s1.77816-6.90469,3.71931-13.33411c2.33478-7.73358,11.78467-25.65494,34.3073-28.51761,8.63019-1.09689,13.16809,4.47894,4.40533,7.21064-6.17164,1.92382-10.61437,2.72689-12.45208,3.91879,0,0,9.22622,3.57944,10.63003,9.13888,.62749,2.48465,2.18072,9.30596,2.63308,14.7894,0,0-1.16786,.4195-2.72319,.74066,0,0-1.44068,9.55874-9.72647,13.86115l-30.79332-7.80781Z" style="fill:#f7a9a0;"></path><g><path d="M337.07489,129.47767c3.47883-2.41333,10.93817-7.40442,18.46031-9.36513,8.3548-2.17787,25.03646-4.12113,26.5805,2.06319,1.13224,4.53427-5.17174,5.83618-5.17174,5.83618,0,0,7.06411,.65026,7.19069,4.97001,.11573,3.93668-4.8208,4.6515-4.8208,4.6515,0,0,4.21712,1.13096,3.59801,4.944-.74442,4.58687-9.46114,1.46378-14.22909,5.45772-1.07089,.8968-31.60787-18.55747-31.60787-18.55747Z" style="fill:#f7a9a0;"></path><path d="M356.3636,129.32412c3.64397-1.733,12.93016-3.54595,20.45711-1.44285,.17087,.0481,.2261,.20218,.0613,.19173-8.77972-.55536-17.0272,.62083-20.49807,1.32977-.04635,.00959-.06134-.05935-.02034-.07864Z" style="fill:#263238;"></path><path d="M358.80717,137.6945c3.29771-1.17243,12.95221-2.61331,20.50677-.22006,.16887,.05351,.21398,.21222,.04979,.19492-9.14913-.95863-17.03435-.3957-20.54062,.10498-.04729,.0066-.05827-.06509-.01593-.07984Z" style="fill:#263238;"></path></g></g></g><g><g><path d="M310.5728,140.69324l-6.80109,28.42765s-22.38616-14.81715-34.78558-29.31967c-9.6833-11.32554-6.69899-15.46625,5.28895-11.64653,11.98779,3.81973,36.29773,12.53855,36.29773,12.53855Z" style="fill:#56534B;"></path><path d="M263.93152,127.72726c2.159,.18146,45.4226,17.96204,45.4226,17.96204l-.52466,2.19084-44.89793-20.15289Z" style="fill:#fff;"></path><path d="M263.43544,128.44264c2.07916,.4853,44.82287,21.92499,44.82287,21.92499l-.60435,2.52595-44.21853-24.45093Z" style="fill:#fff;"></path></g><g><path d="M300.85244,167.05967c-7.67513-6.75343-16.34661-13.07142-24.28799-19.50976,7.24612,7.45895,15.7331,13.639,24.28799,19.50976h0Z" style="fill:#263238;"></path><path d="M276.88419,149.3731c.99905,1.13201,2.46922,1.82464,3.95715,2.01328-1.29812-.78843-2.57944-1.38039-3.95715-2.01328h0Z" style="fill:#263238;"></path></g><g><polygon points="313.3756 139.1592 306.39142 171.28521 305.50872 170.28218 303.72623 171.53155 303.05656 170.77084 300.33483 170.11492 308.42875 138.25737 309.35799 139.31319 311.10772 138.51848 311.83282 139.58418 313.3756 139.1592" style="fill:#56534B;"></polygon><polygon points="313.3756 139.1592 306.39142 171.28521 305.50872 170.28218 303.72623 171.53155 303.05656 170.77084 300.33483 170.11492 308.42875 138.25737 309.35799 139.31319 311.10772 138.51848 311.83282 139.58418 313.3756 139.1592" style="opacity:.1;"></polygon></g></g></g></g></g></svg>
