<?xml version="1.0" standalone="no"?><svg xmlns="http://www.w3.org/2000/svg" viewBox="0 0 1440 320"><path fill="#56534B" fill-opacity="1" d="M0,160L40,181.3C80,203,160,245,240,256C320,267,400,245,480,224C560,203,640,181,720,181.3C800,181,880,203,960,202.7C1040,203,1120,181,1200,181.3C1280,181,1360,203,1400,213.3L1440,224L1440,320L1400,320C1360,320,1280,320,1200,320C1120,320,1040,320,960,320C880,320,800,320,720,320C640,320,560,320,480,320C400,320,320,320,240,320C160,320,80,320,40,320L0,320Z"></path></svg>