<svg width="987" height="270" viewBox="0 0 987 270" fill="none" xmlns="http://www.w3.org/2000/svg">
<g clip-path="url(#clip0_94_3109)">
<path d="M1092.55 25.0948L1062.68 62.2323C1032.88 99.6834 973.038 173.488 902.443 197.887C831.847 222.286 750.158 195.711 677.737 211.718C605.213 227.256 541.956 285.376 469.432 300.913C397.011 316.921 315.322 290.346 242.9 306.354C170.376 321.891 107.119 380.011 75.3717 408.522L43.6922 437.347L54.6152 487.537L90.8516 479.65C127.088 471.764 199.561 455.992 272.034 440.219C344.506 424.446 416.979 408.674 489.452 392.901C561.925 377.129 634.398 361.356 706.87 345.584C779.343 329.811 851.816 314.038 924.289 298.266C996.761 282.493 1069.23 266.721 1105.47 258.835L1141.71 250.948L1092.55 25.0948Z" fill="#56534B"/>
</g>
<defs>
<clipPath id="clip0_94_3109">
<rect width="1112.54" height="256.823" fill="white" transform="translate(1141.71 250.948) rotate(167.722)"/>
</clipPath>
</defs>
</svg>
