<svg width="886" height="234" viewBox="0 0 886 234" fill="none" xmlns="http://www.w3.org/2000/svg">
<g clip-path="url(#clip0_94_3107)">
<path d="M-161.642 210.488L-131.712 177.165C-101.833 143.551 -41.8932 77.3404 26.2181 56.9366C94.3295 36.5329 170.872 63.3899 240.372 50.766C309.949 38.5784 372.482 -13.0902 442.06 -25.2778C511.559 -37.9017 588.102 -11.0447 657.601 -23.6686C727.178 -35.8562 789.712 -87.5248 821.07 -112.85L852.375 -138.466L844.074 -185L809.304 -178.797C774.535 -172.594 704.997 -160.188 635.459 -147.783C565.921 -135.377 496.382 -122.971 426.844 -110.565C357.306 -98.1596 287.768 -85.7539 218.229 -73.3481C148.691 -60.9423 79.153 -48.5366 9.61472 -36.1308C-59.9235 -23.725 -129.462 -11.3193 -164.231 -5.1164L-199 1.08649L-161.642 210.488Z" fill="#56534B"/>
</g>
<defs>
<clipPath id="clip0_94_3107">
<rect width="1059.54" height="236.342" fill="white" transform="translate(-199 1.08649) rotate(-10.1153)"/>
</clipPath>
</defs>
</svg>
